<?xml version="1.0"?>
<svg xmlns:rdf="http://www.w3.org/1999/02/22-rdf-syntax-ns#" xmlns="http://www.w3.org/2000/svg" xmlns:cc="http://creativecommons.org/ns#" xmlns:dc="http://purl.org/dc/elements/1.1/" id="svg2" viewBox="0 0 530.3 529.15" version="1.1">
 <g id="g2999" transform="translate(-138.18 -199.2)">
  <path id="path3001" style="color:#000000" d="m389.43 368.93s30.744 9.3164 57.762 3.7266c0 0 1.9198-11.453 6.5215-22.359 0 0-6.9639 8.6576-12.111 10.248-9.927 19.823-32.351-22.809-6.5215-13.975 0 0 18.633-11.18 29.812-27.018 0 0-10.248-24.223-39.129-27.018-21.619 8.1551-9.2109-43.296 3.7266-16.77 0 0 14.906 11.18 44.719 19.564 0 0 4.6582-52.172-22.359-68.01-25.009-5.0465 14.953-45.581 14.906-10.248 0 0 19.564 50.309 37.266 54.035 0 0 33.539-9.3164 43.787-26.086 6.6201-36.105 39.954 18.88 11.18 12.111 0 0-39.129 25.154-51.24 60.557 0 0-8.8129 48.264-34.471 80.121-23.925 7.4112-38.17 8.5145-53.104 10.248 12.067 28.38 55.971 69.956 59.625 110.87 37.515-104.5 80.753-83.689 79.189-42.855 13.043-12.111 22.359-51.24 22.359-51.24-15.27-27.782 31.523-13.023 14.906 2.7949-1.8633 2.7949-12.111 33.539-12.111 33.539 18.633-27.018 57.762-59.625 57.762-59.625 13.296-39.897 32.024 17.233 11.18 6.5215-20.496 16.77-45.65 59.625-45.65 59.625 10.248-4.6582 38.197-13.043 38.197-13.043-7.9335-28.604 35.296-1.0653 13.975 8.3848-10.714 3.7266-31.22 5.6168-58.243 45.924-26.581 39.648-36.339 111.58-45.169 134.81-26.086 67.078-42.397 30.407-51.24 15.838-8.3848 28.881-59.625 26.086-59.625 26.086 74.531 48.445-23.291 38.197-23.291 38.197-49.828-2.4304-155.89-62.378-155.89-62.378-24.374-22.398-62.583 13.175-62.583 13.175-15.829 30.879-35.453-13.991-11.858-12.517 19.104-5.9289 17.787-21.081 17.787-21.081-11.858-17.128-50.066-19.104-50.066-19.104-29.645 7.2465-17.297-33.815 1.9763-16.469 10.54 0.65877 28.986 9.2228 28.986 9.2228-9.5189-22.338 12.677-21.783 19.104-10.54 3.9526 2.6351 21.081 8.564 21.081 8.564-8.0674-13.966 10.452-22.224 13.175-10.54 2.6351 0 6.5877-1.9763 6.5877-1.9763-0.65877-24.374 34.915-19.763 34.915-19.763 0.65877-17.787-48.09-37.55-48.09-37.55-31.621 1.3175-0.65877-40.263 7.2465-12.517 15.152 16.469 68.512 30.962 68.512 30.962 5.9289-9.8816-2.6351-30.962-2.6351-30.962-18.446-9.2228-12.517-23.716-12.517-23.716-5.9289-7.9052-21.081-21.739-21.081-21.739-47.464-10.431-83.913-95.569-68.512-146.91 0.65877-10.54 9.7082-15.168 20.036-16.629 10.328-1.4612 32.433-3.2126 45.066-5.1497 32.718-0.21377 64.043 16.625 64.043 16.625 15.152 15.152 52.11 36.033 52.11 36.033z" stroke="#4e9a06" stroke-width="2" fill="#73d216"/>
 </g>
 <g id="layer2" transform="translate(-138.18 -199.2)">
  <path id="path3028" style="block-progression:tb;text-indent:0;color:#000000;text-transform:none" d="m320.84 0.5c-0.31-0.01123-0.62 0.01178-0.93 0.03125-3.73 0.23361-7.28 2.4272-10.19 5.125-3.89 3.5972-6.98 8.4328-7.28 13.594-0.15 2.58 0.56 5.344 2.4 7.5 1.69 1.972 4.26 3.256 7.41 4.031 12.14 7.182 17.6 23.133 19.75 37.719 1.66 11.276 1.38 19.566 1.16 23.625-25.6-7.725-38.47-16.797-39.6-17.625-1.61-3.116-3.26-5.41-5.22-6.875-2.13-1.595-4.91-2.099-7.15-1.281-4.48 1.636-6.49 6.242-7.63 11.031-1.13 4.789-1.24 10.134 0.97 14.437 1.11 2.152 2.98 4.056 5.5 4.907 2.23 0.75 4.8 0.535 7.53-0.313 24.21 2.487 33.76 19.824 35.6 23.624-9.83 13.11-24.22 22.52-26.78 24.13-2.82-0.82-5.31-1.21-7.47-0.88-2.56 0.39-4.78 1.88-5.91 3.88-2.25 4-1.01 8.63 1.06 12.68 2.08 4.06 5.25 7.8 9.53 9.28 2.15 0.75 4.71 0.78 6.97-0.34 1.94-0.96 3.48-2.77 4.82-5.03 1.15-0.48 2.26-1.06 3.28-1.78-1.33 4.72-1.87 7.26-2.16 8.81-25.05 4.49-53.1-3.53-54.06-3.81-0.36-0.22-14.03-7.93-27.03-17-16.13-13.29-24.54-20.65-53.07-29.22-15.5-4.66-32-7.21-47.81-7.16-15.81 0.06-30.912 2.72-43.624 8.44-0.032 0.01-0.061 0.06-0.094 0.06-1.066 0.25-2.071 0.61-3.031 1-0.245 0.1-0.481 0.21-0.719 0.32-0.189 0.08-0.377 0.15-0.562 0.25-0.604 0.29-1.244 0.62-1.906 1.06-0.119 0.09-0.227 0.19-0.344 0.28-0.474 0.33-0.942 0.66-1.375 1.03l0.063 0.06c-3.164 2.93-5.329 6.98-5.813 11.91-0.003 0.03-0.028 0.06-0.031 0.09-7.979 26.72-2.501 61.31 10.844 90.82 13.192 29.16 34.142 53.54 58.972 59.5 0.74 0.69 13.61 12.6 19.4 19.87-0.46 1.72-0.99 4.35-0.34 8.13 0.92 5.37 4.7 11.89 13.65 16.78 0.42 1.07 1.9 5.01 3.07 10.43 1.12 5.22 1.43 11.02 0.25 14.91-3.18-0.89-12.95-3.69-25.75-8.47-14.91-5.56-31.63-13.43-38.47-20.62-1.06-3.28-2.44-5.91-4.28-7.72-2.04-2.01-4.634-3.05-7.128-3.06-4.986-0.04-9.197 3.22-12 7.18-2.802 3.97-4.433 9.1-2.406 13.78 1.014 2.35 3.014 4.36 5.75 5.57 2.537 1.12 5.749 1.6 9.594 1.53 0.629 0.26 11.93 4.89 23.47 11.72 5.93 3.51 11.81 7.54 16 11.62 2.89 2.81 4.78 5.56 5.69 8-3.49-0.21-8.51-0.29-14.69 1.03-4.73 1.02-9.62 2.85-13.44 6.38-3.39 3.13-5.62 7.76-5.97 13.53-0.25 0.11-0.22 0.1-0.53 0.22-0.5 0.19-0.85 0.21-1.37 0.34-1.22-2.27-3.09-3.92-5.25-4.62-2.971-0.97-6.129-0.4-8.754 1.15-3.82 2.27-6.423 7.04-5.781 12.57-1.405-0.51-1.542-0.54-3.25-1.19-4.664-1.77-9.975-4.09-11.25-4.91-4.134-6.18-11.6-9.34-18.063-7.78-3.413 0.83-6.563 3.4-7.687 7.28-0.685 2.37-0.626 5.14 0.031 8.25-1.847-0.78-2.052-0.95-4.687-1.93-5.731-2.15-12.559-4.36-18.344-4.91-5.131-4.23-10.545-5.33-14.844-3.69-4.5342 1.73-7.4636 5.84-8.5622 10.25-1.0987 4.41-0.33714 9.55 3.3124 13 3.5582 3.36 9.3908 4.54 17.094 2.78 0.425 0.03 9.267 0.53 19.75 3.03 10.399 2.49 21.811 7.11 27.156 14.1 0.016 0.88-0.036 2.95-1.437 6.03-1.731 3.81-5.342 8.31-14 11.06-6.348-0.08-10.954 3.21-12.5 7.63-1.618 4.62-0.638 9.82 1.687 14.06 2.326 4.24 6.415 7.85 11.625 7.62 5.065-0.21 9.87-4.12 14-11.87 0.377-0.35 9.336-8.52 21.188-14.25 6.052-2.93 12.726-5.11 19.126-5.28 6.39-0.17 12.45 1.52 17.97 6.59l0.25 0.22 0.28 0.19s26.61 15.03 59.47 30.37c32.8 15.32 71.58 31.02 97.59 32.35v0.03h0.16c0.26 0.03 24.38 2.7 40.43-1 4.04-0.93 7.64-2.25 10.35-4.53 2.71-2.29 4.27-6.04 3.41-9.91-1.46-6.51-8.14-13.54-21.29-22.84 4.94-0.23 11.17-0.79 17.82-2.19 7.15-1.51 14.69-3.92 21.12-8 4.75-3.02 8.86-7.02 11.66-12.13 1.54 2.64 3.25 5.45 5.22 8.19 3.34 4.66 7.28 9.04 12.62 10.69 5.35 1.65 11.61-0.27 17.41-6.53 5.79-6.26 11.78-16.83 18.37-33.78 4.65-12.24 9.2-35.84 16.03-61.57 6.84-25.72 15.9-53.38 28.82-72.65 13.32-19.88 24.89-30.06 34.31-35.78s16.67-7 22.44-9l0.12-0.04 0.16-0.06c5.22-2.44 7.55-7.25 7.03-11.56-0.53-4.31-3.12-8.08-6.41-10.72-3.29-2.63-7.64-4.36-11.81-2.69-3.72 1.5-6.05 5.59-6.78 11.57-2.36 0.7-16.55 5.02-28.25 9.31 2.63-4.2 6.16-9.68 10.37-15.78 8.64-12.5 19.81-26.94 29.44-35 2.64-0.26 4.97-0.99 6.69-2.38 2.01-1.62 3.15-3.91 3.53-6.22 0.76-4.6-0.97-9.34-3.75-12.97-1.39-1.81-3.08-3.36-5.13-4.34-2.04-0.98-4.55-1.31-6.93-0.47-4.55 1.62-7.64 6.65-9.6 15.31-1.66 1.39-27.07 22.79-46.56 45.6 1.27-3.65 2.56-7.37 3.66-10.31 0.6-1.62 1.16-3.04 1.59-4.1 0.44-1.05 0.9-1.89 0.78-1.72h-0.03c2.13-2.17 3.56-4.48 4-6.9 0.48-2.61-0.15-5.17-1.34-7.25-2.38-4.17-6.76-6.85-11.25-8.13s-9.63-1.31-12.82 2.35c-1.59 1.83-2.3 4.46-2.03 7.28 0.24 2.49 1.29 5.29 2.91 8.47-0.33 1.33-2.37 9.54-5.97 19.81-2.81 8.01-6.58 16.7-10.56 22.94-0.81-7.32-3.07-13.83-6.69-18.78-4.94-6.78-12.74-10.61-21.47-9.04-8.73 1.58-18.08 8.07-27.65 20.54-8.27 10.75-16.73 26.4-24.97 47.31-4.26-17.65-14.42-34.84-25.25-50.78-11.95-17.6-24.37-33.67-30.82-46.63 13.54-1.52 27.4-2.98 49.35-9.78l0.87-0.28 0.6-0.72c26.02-32.31 34.73-79.75 34.97-81.03 11.22-32.818 46.79-56.818 49.18-58.408 3.28 0.586 6.12 0.591 8.44-0.406 2.69-1.152 4.46-3.616 5.03-6.156 1.14-5.081-1-10.615-4.09-15.281-3.1-4.667-7.34-8.824-12.78-8.781-2.72 0.021-5.49 1.501-7.41 4.031-1.8 2.377-3.03 5.698-3.9 10.062-4.58 7.251-14.93 13.638-24.26 17.907-8.67 3.969-15.57 5.976-16.74 6.312-3.14-0.909-7.14-4.025-11.04-8.75-4.12-5-8.16-11.518-11.65-17.938-6.86-12.584-11.5-24.458-11.69-24.937-0.07-4.299-0.65-7.7391-1.88-10.406-1.3-2.8369-3.45-4.8687-5.96-5.6878-0.95-0.30708-1.88-0.4975-2.82-0.5312zm0.28 6.0938c0.26 0.0156 0.48 0.0574 0.69 0.125 0.83 0.2706 1.6 0.8101 2.38 2.5 0.77 1.6902 1.38 4.5222 1.37 8.6562v0.563l0.22 0.531s4.94 12.722 12.16 25.969c3.6 6.623 7.76 13.394 12.28 18.874 4.52 5.481 9.35 9.843 15 11.032l0.72 0.156 0.68-0.188s8.6-2.373 18.5-6.906c9.91-4.533 21.31-11.083 27.07-20.5l0.28-0.468 0.09-0.563c0.78-4.227 1.94-6.912 3-8.313 1.06-1.4 1.77-1.618 2.66-1.624 1.77-0.014 5.28 2.404 7.75 6.124 2.47 3.721 3.71 8.428 3.22 10.626-0.25 1.098-0.56 1.519-1.53 1.937-0.98 0.418-2.97 0.663-6.19-0.094l-1.22-0.312-1.06 0.687s-39.86 25.262-52.47 62.124l-0.06 0.22-0.07 0.22s-8.8 47.05-33.31 78.03c-22.79 6.97-36.51 8.16-51.09 9.84-3.54-7.52-10.82-20.4-22.88-30.96 11.26 2.42 31.43 5.43 50.28 1.53l2.03-0.41 0.35-2.03s1.9-11.22 4.12-18.63c2.23-7.4 4.36-14.46 7.44-22.28 1.08-2.74 2.3-5.52 3.59-8.25 1.15-1.61 1.4-3.55 2.6-5.06 3.42-6.26 7.24-11.55 11.12-13.84l-3.72 1.65c-3.15 1.78-5.87 3.14-9.12 8.82-3.87-6.77-15.83-23.654-40.12-26.005l-0.72-0.094-0.66 0.25c-2.26 0.853-3.68 0.799-4.56 0.5-0.89-0.298-1.49-0.858-2.06-1.969-1.15-2.221-1.36-6.574-0.47-10.312 0.88-3.738 3.03-6.485 3.84-6.781 0.41-0.148 0.56-0.263 1.5 0.437s2.35 2.441 3.84 5.5l0.32 0.625 0.59 0.438s15.49 11.56 45.72 20.062l3.47 0.969 0.31-3.594s1.21-13.361-1.06-28.781-7.94-33.41-22.75-42.094l-0.44-0.25-0.5-0.093c-2.67-0.539-4.08-1.456-4.84-2.344-0.76-0.889-1.05-1.873-0.97-3.25 0.16-2.755 2.37-6.781 5.34-9.532 2.23-2.0624 4.71-3.217 6.5-3.437 0.3-0.0367 0.59-0.047 0.84-0.0312zm-196.62 113.1c15.16-0.06 31.13 2.31 46.09 6.81 27.18 8.16 29.97 13.68 47.47 25.59 15 10.61 31.27 19.69 31.56 19.85 0.45 0.24 2.06 1.04 2.94 1.28 14.04 10.32 22.4 24.57 23.75 28.84l2.91 7.97c6.34 14.91 20.39 32.32 33.25 51.25 12.85 18.93 24.42 39.22 30.12 57.69 5.71 18.46 9.75 40.93 12.07 59.72 2.54 20.68 3.03 36.9 3.03 36.9s1.02-5.49 1.19-11.71c0.16-6.23 0.21-10.13-1.26-25.57-1.77-18.64-6.74-41.19-12.68-58.59 9.24-25.62 18.5-43.03 27.47-54.69 9.03-11.75 17.39-17.1 23.97-18.28 6.57-1.18 11.66 1.35 15.56 6.69 3.89 5.34 6.24 13.67 5.87 23.34 0.8 2.95 1.52 4.25 2.75 8.66 0.78 2.77 3.42 10.93 3.85 21.37 0.55 13.54 0.06 29.24-0.85 44.16-1.81 29.83-5.25 56.47-5.25 56.47s0.86-4.07 2.31-13.44c1.46-9.37 4.13-12.89 5.94-42.84 0.91-14.98 1.41-30.77 0.85-44.47-0.47-11.34-1.59-21.22-3.97-28.19 7.13-7.04 12.34-19.63 16.25-30.78 4.01-11.46 6.37-21.38 6.37-21.38l0.28-1.12-0.56-1.03c-1.78-3.24-2.53-5.71-2.69-7.35-0.15-1.63 0.18-2.3 0.57-2.75 0.77-0.89 3.4-1.44 6.62-0.53 3.22 0.92 6.48 3.17 7.72 5.35 0.62 1.09 0.83 2.06 0.62 3.18-0.2 1.12-0.88 2.51-2.62 4.16l-0.25 0.25-0.19 0.28c-0.58 0.88-0.83 1.59-1.31 2.75s-1.07 2.63-1.69 4.28c-1.23 3.32-2.69 7.44-4.09 11.47-2.8 8.06-5.38 15.75-5.38 15.75l5.32 2.66c18.16-26.33 57.21-59.03 57.21-59.03l0.82-0.69 0.22-1.03c1.75-8.54 4.53-11.44 6.03-11.97 0.74-0.27 1.41-0.23 2.34 0.22 0.94 0.44 2.04 1.37 2.97 2.59 1.87 2.44 2.94 6.04 2.56 8.31-0.18 1.14-0.6 1.91-1.37 2.53-0.78 0.63-2.09 1.2-4.38 1.26l-1.03 0.03-0.78 0.65c-10.75 8.8-22.18 23.81-31.09 36.72-8.92 12.91-15.25 23.69-15.25 23.69l-4.78 8.19 8.59-3.94c9.61-4.37 37.84-12.91 37.84-12.91l2.03-0.59 0.1-2.13c0.29-6.07 1.99-7.92 3.28-8.43 1.29-0.52 3.63 0 5.84 1.78 2.22 1.77 3.92 4.6 4.19 6.78 0.26 2.15-0.15 3.71-3.47 5.31-4.96 1.71-13.25 3.32-23.44 9.5-10.26 6.23-22.46 17.14-36.15 37.56-13.67 20.38-22.76 48.51-29.66 74.47s-11.66 49.94-15.84 60.94h0.03c-6.45 16.59-12.31 26.6-17.19 31.88-4.88 5.27-8.12 5.83-11.22 4.87s-6.51-4.25-9.53-8.47c-2.76-3.85-5.16-8.23-7.31-11.84 0.13-3.01 1.61-34.95 5.37-72.56 3.95-39.48 15.01-84.25 20.13-104.94 0 0-4.18 10.91-8.28 22.78-4.1 11.86-10.89 42.27-14.85 81.84-3.02 30.25-4.61 57.11-5.59 61.53l-2.87 10.97c-1.87 6.42-6.03 11.08-11.57 14.6-5.54 3.51-12.42 5.78-19.12 7.18-13.4 2.82-25.88 2.16-25.88 2.16l-4.47-0.25c-10.17-6.05-32.86-19.25-59.18-32.56-35.72-18.07-65.32-27.41-73.75-29.69-8.44-2.28-15.48-5.61-31.57-5.16 9.06 1.07 26.32 4.75 45.07 12.22 18.43 7.35 40.33 15.13 58.12 24.13 22.57 11.41 43.23 23.92 54.81 30.72h-0.25l9.41 6.09c18.42 11.97 25.61 20.61 26.5 24.56 0.44 1.98 0.07 2.79-1.41 4.03-1.47 1.25-4.27 2.44-7.81 3.25-14.14 3.27-38.62 0.88-38.62 0.88h-0.1l-0.06-0.03c-23.82-1.16-62.91-16.58-95.53-31.81-32.57-15.21-58.88-30.08-58.97-30.13l-0.06-0.03c-6.56-5.77-14.2-7.98-21.63-7.78-7.62 0.2-15.044 2.71-21.591 5.87-13.094 6.34-22.907 15.5-22.907 15.5l-0.374 0.35-0.25 0.46c-3.708 7.24-7.098 9.16-9.282 9.26-2.183 0.09-4.515-1.63-6.125-4.57-1.609-2.93-2.094-6.74-1.25-9.15s2.302-4 7.281-3.69l0.563 0.03 0.531-0.16c10.262-3.18 15.537-9.16 17.906-14.37 2.37-5.21 1.969-9.85 1.969-9.85l-0.062-0.78-0.438-0.65c-6.756-9.76-19.917-14.48-31.25-17.19-11.332-2.71-21.156-3.22-21.156-3.22h-0.437l-0.407 0.1c-6.823 1.66-10.385 0.45-12.156-1.22-1.7705-1.68-2.2856-4.38-1.5938-7.16 0.6919-2.78 2.6001-5.23 4.8748-6.09 2.275-0.87 5.3-0.68 9.563 3.15l0.75 0.69 1.062 0.06c4.571 0.29 11.748 2.51 17.563 4.69s10.344 4.28 10.344 4.28 6.948 0.91 9.75 1.03c2.801 0.13 13.94 2.18 24.156 4.78 12.252 3.13 19.286 4.26 22.936 6.07-7.53-5.55-15.187-7.15-22.186-8.97-11.218-2.86-23.593-5.85-30.656-6.88-2.19-5.16-2.341-8.66-1.782-10.59 0.562-1.94 1.564-2.7 3.313-3.13 3.497-0.84 9.733 1.56 12.219 5.91l0.374 0.62 0.563 0.38c2.776 1.85 7.8 3.76 12.625 5.59s9.156 3.32 9.156 3.32l7.594 2.62-4.031-6.97c-3.408-5.9-1.175-9.22 1.5-10.81 1.337-0.79 2.793-0.96 3.811-0.63 1.02 0.34 1.85 0.99 2.34 3.1l0.57 2.31h2.37c0.5 0 0.98-0.03 1.44-0.09 1.07 5.04 4.5 11.35 9.97 18.62 6.27 8.33 15.29 17.83 26.84 27.47 23.1 19.28 52.41 34.91 69.38 40.81 16.96 5.9 29.15 7.57 29.15 7.57-40.94-11.99-73.8-31.67-96.59-50.69-11.4-9.51-20.28-18.87-26.37-26.97-5.36-7.12-6.47-13.08-6.35-16.63 0.12-3.54 0.39-4.78 0.91-8.31 0.52-3.52 2.73-5.47 5.4-7.93 2.67-2.47 6.58-4.03 10.66-4.91 8.16-1.76 16.69-0.72 16.69-0.72 0.95 0.1 2.7 0.13 3.25 0.22 10.67 2.92 43.68 12.61 80.03 30.44 1.94 1.03 4.13 2.02 5.56 2.78 20.83 10.6 24.03 11.73 47.06 27.03l15.66 10.53c-20.41-17.72-44.33-31.98-67.06-43.13-8.85-6.03-13.94-12.56-17.16-19.43-3.84-8.21-4.97-16.99-6.37-26.07-2.8-18.14-6.9-37.41-36.16-53.18 0 0 13.7 9.53 17.03 14.5 3.33 4.96 13.37 21.1 16.16 39.15 1.39 9.03 2.54 18.14 6.62 26.88 2.11 4.5 5 8.86 9.07 13.03-32.92-15.02-61.24-23.18-70.32-25.62 0.2-5.83-3.4-10.98-8.15-15.6-4.77-4.63-10.96-8.88-17.13-12.53-12.34-7.31-24.69-12.28-24.69-12.28l-0.59-0.25-0.656 0.03c-3.635 0.15-6.158-0.36-7.75-1.06-1.592-0.71-2.281-1.5-2.688-2.44-0.813-1.88-0.161-5.14 1.813-7.94 1.974-2.79 5.008-4.67 7.062-4.65 1.028 0 1.89 0.31 2.939 1.34 1.05 1.03 2.23 2.91 3.12 6.03l0.19 0.69 0.47 0.53c8.47 9.2 25.71 16.7 41.09 22.44 15.38 5.73 28.85 9.4 28.85 9.4l2.18 0.6 1.19-1.97c3.78-6.3 2.71-14.55 1.25-21.34-1.46-6.8-3.68-12.29-3.68-12.29l-0.44-1.06-1-0.5c-8.55-4.27-10.89-9.19-11.56-13.12-0.68-3.94 0.46-6.75 0.46-6.75l0.66-1.6-1.03-1.34c-6.39-8.52-21.44-22.16-21.44-22.16l-0.59-0.56-0.82-0.16c-22.21-4.88-42.834-27.96-55.714-56.43-12.88-28.48-17.944-62.08-10.562-86.69l0.125-0.31v-0.35c0.277-4.44 2.136-7.27 5.187-9.5 1.584-0.4 2.779-0.98 3.656-1.62 0.268-0.07 0.53-0.13 0.813-0.19l0.344-0.06 0.312-0.16c11.706-5.29 26.059-7.78 41.219-7.84zm196.16 12.5c-2.91 7.39-4.93 13.98-6.19 15.5 0 0-2.94 3.58-5.19 5.81s-5.28 4.55-6.75 5l-1.22 0.38-0.59 1.12c-1.04 2.08-2.09 3.03-2.84 3.41-0.76 0.37-1.37 0.39-2.32 0.06-1.9-0.66-4.61-3.32-6.15-6.35-1.55-3.02-1.69-6.14-1.19-7.03 0.25-0.44 0.47-0.7 1.59-0.87 1.13-0.17 3.15-0.01 6.1 1l1.34 0.47 1.19-0.72s11.57-6.89 22.22-17.78z" transform="translate(138.18 199.2)" stroke="#4e9a06" fill="#4e9a06"/>
  <path id="path3077" style="color:#000000" d="m93.907 225.14c-6.564-11.587-9.0759-25.438-10.962-32.52-15.546 12.831-9.1588 33.563 10.962 32.52z" transform="translate(138.18 199.2)" stroke="#fdca01" stroke-width="2" fill="#fdca01"/>
  <path id="path3081" style="color:#000000" d="m78.546 150.89c10.089 10.058 1.7489 23.624 5.1675 41.857" transform="translate(138.18 199.2)" stroke="#4e9a06" stroke-width="2" fill="none"/>
  <path id="path3045" style="color:#000000" d="m324.97 350.89c-10.086-8.6959-23.182-13.858-29.761-17.088 15.614-12.748 34.705-2.4437 29.761 17.088z" stroke="#fdca01" stroke-width="2" fill="#fdca01"/>
  <path id="path3047" style="color:#000000" d="m255.14 321.35c7.8995 11.856 22.831 6.3184 40.048 13.224" stroke="#4e9a06" stroke-width="2" fill="none"/>
  <path id="path3805" style="color:#000000" d="m319.05 336.84c-3.2315-2.786-7.4271-4.44-9.535-5.4748 5.0024-4.0842 11.119-0.78291 9.535 5.4748z" fill="#ce5c00"/>
  <path id="path3807" style="color:#000000" d="m221.19 415.89c-2.3548-4.1569-3.2558-9.1257-3.9325-11.666-5.577 4.6029-3.2857 12.041 3.9325 11.666z" fill="#ce5c00"/>
 </g>
 <metadata>
  <rdf:RDF>
   <cc:Work>
    <dc:format>image/svg+xml</dc:format>
    <dc:type rdf:resource="http://purl.org/dc/dcmitype/StillImage"/>
    <cc:license rdf:resource="http://creativecommons.org/licenses/publicdomain/"/>
    <dc:publisher>
     <cc:Agent rdf:about="http://openclipart.org/">
      <dc:title>Openclipart</dc:title>
     </cc:Agent>
    </dc:publisher>
   </cc:Work>
   <cc:License rdf:about="http://creativecommons.org/licenses/publicdomain/">
    <cc:permits rdf:resource="http://creativecommons.org/ns#Reproduction"/>
    <cc:permits rdf:resource="http://creativecommons.org/ns#Distribution"/>
    <cc:permits rdf:resource="http://creativecommons.org/ns#DerivativeWorks"/>
   </cc:License>
  </rdf:RDF>
 </metadata>
</svg>
